solid ASCII
  facet normal 0.000000e+00 -2.576627e-01 9.662349e-01
    outer loop
      vertex   7.088011e+01 -2.241086e+02 1.700000e+02
      vertex   7.088011e+01 -7.410859e+01 2.100000e+02
      vertex   -6.911989e+01 -2.241086e+02 1.700000e+02
    endloop
  endfacet
  facet normal 0.000000e+00 -2.576627e-01 9.662349e-01
    outer loop
      vertex   -6.911989e+01 -2.241086e+02 1.700000e+02
      vertex   7.088011e+01 -7.410859e+01 2.100000e+02
      vertex   -6.911989e+01 -7.410859e+01 2.100000e+02
    endloop
  endfacet
  facet normal 1.000000e+00 0.000000e+00 0.000000e+00
    outer loop
      vertex   7.088011e+01 -7.410859e+01 2.100000e+02
      vertex   7.088011e+01 -2.241086e+02 1.700000e+02
      vertex   7.088011e+01 -7.410859e+01 1.700000e+02
    endloop
  endfacet
  facet normal 1.000000e+00 1.332268e-16 0.000000e+00
    outer loop
      vertex   7.612090e-01 -7.410859e+01 2.018380e+02
      vertex   7.612090e-01 -7.410859e+01 1.700000e+02
      vertex   7.612090e-01 -2.410859e+01 2.018380e+02
    endloop
  endfacet
  facet normal 1.000000e+00 1.332268e-16 0.000000e+00
    outer loop
      vertex   7.612090e-01 -2.410859e+01 2.018380e+02
      vertex   7.612090e-01 -7.410859e+01 1.700000e+02
      vertex   7.612090e-01 -2.410859e+01 1.700000e+02
    endloop
  endfacet
  facet normal 0.000000e+00 -0.000000e+00 1.000000e+00
    outer loop
      vertex   -1.500000e+01 -7.410859e+01 2.018380e+02
      vertex   7.612090e-01 -7.410859e+01 2.018380e+02
      vertex   -1.500000e+01 -2.410859e+01 2.018380e+02
    endloop
  endfacet
  facet normal -0.000000e+00 0.000000e+00 1.000000e+00
    outer loop
      vertex   -1.500000e+01 -2.410859e+01 2.018380e+02
      vertex   7.612090e-01 -7.410859e+01 2.018380e+02
      vertex   7.612090e-01 -2.410859e+01 2.018380e+02
    endloop
  endfacet
  facet normal -1.000000e+00 -1.421085e-16 0.000000e+00
    outer loop
      vertex   -1.500000e+01 -7.410859e+01 1.700000e+02
      vertex   -1.500000e+01 -7.410859e+01 2.018380e+02
      vertex   -1.500000e+01 -2.410859e+01 1.700000e+02
    endloop
  endfacet
  facet normal -1.000000e+00 -1.421085e-16 0.000000e+00
    outer loop
      vertex   -1.500000e+01 -2.410859e+01 1.700000e+02
      vertex   -1.500000e+01 -7.410859e+01 2.018380e+02
      vertex   -1.500000e+01 -2.410859e+01 2.018380e+02
    endloop
  endfacet
  facet normal 0.000000e+00 1.000000e+00 0.000000e+00
    outer loop
      vertex   -1.500000e+01 -2.410859e+01 1.700000e+02
      vertex   -1.500000e+01 -2.410859e+01 2.018380e+02
      vertex   7.612090e-01 -2.410859e+01 1.700000e+02
    endloop
  endfacet
  facet normal 0.000000e+00 1.000000e+00 -0.000000e+00
    outer loop
      vertex   7.612090e-01 -2.410859e+01 1.700000e+02
      vertex   -1.500000e+01 -2.410859e+01 2.018380e+02
      vertex   7.612090e-01 -2.410859e+01 2.018380e+02
    endloop
  endfacet
  facet normal -1.000000e+00 0.000000e+00 0.000000e+00
    outer loop
      vertex   -6.911989e+01 -2.241086e+02 1.700000e+02
      vertex   -6.911989e+01 -7.410859e+01 2.100000e+02
      vertex   -6.911989e+01 -7.410859e+01 1.700000e+02
    endloop
  endfacet
  facet normal 0.000000e+00 1.000000e+00 -0.000000e+00
    outer loop
      vertex   -1.500000e+01 -7.410859e+01 1.700000e+02
      vertex   -6.911989e+01 -7.410859e+01 1.700000e+02
      vertex   -1.500000e+01 -7.410859e+01 2.018380e+02
    endloop
  endfacet
  facet normal 0.000000e+00 1.000000e+00 0.000000e+00
    outer loop
      vertex   -1.500000e+01 -7.410859e+01 2.018380e+02
      vertex   -6.911989e+01 -7.410859e+01 1.700000e+02
      vertex   -6.911989e+01 -7.410859e+01 2.100000e+02
    endloop
  endfacet
  facet normal 0.000000e+00 1.000000e+00 -0.000000e+00
    outer loop
      vertex   -1.500000e+01 -7.410859e+01 2.018380e+02
      vertex   -6.911989e+01 -7.410859e+01 2.100000e+02
      vertex   7.612090e-01 -7.410859e+01 2.018380e+02
    endloop
  endfacet
  facet normal -1.015061e-16 1.000000e+00 -8.690720e-16
    outer loop
      vertex   7.612090e-01 -7.410859e+01 2.018380e+02
      vertex   -6.911989e+01 -7.410859e+01 2.100000e+02
      vertex   7.088011e+01 -7.410859e+01 2.100000e+02
    endloop
  endfacet
  facet normal -2.026680e-16 1.000000e+00 0.000000e+00
    outer loop
      vertex   7.612090e-01 -7.410859e+01 2.018380e+02
      vertex   7.088011e+01 -7.410859e+01 2.100000e+02
      vertex   7.088011e+01 -7.410859e+01 1.700000e+02
    endloop
  endfacet
  facet normal -2.026680e-16 1.000000e+00 0.000000e+00
    outer loop
      vertex   7.088011e+01 -7.410859e+01 1.700000e+02
      vertex   7.612090e-01 -7.410859e+01 1.700000e+02
      vertex   7.612090e-01 -7.410859e+01 2.018380e+02
    endloop
  endfacet
  facet normal 0.000000e+00 -0.000000e+00 -1.000000e+00
    outer loop
      vertex   7.088011e+01 -7.410859e+01 1.700000e+02
      vertex   7.088011e+01 -2.241086e+02 1.700000e+02
      vertex   7.612090e-01 -7.410859e+01 1.700000e+02
    endloop
  endfacet
  facet normal 0.000000e+00 -0.000000e+00 -1.000000e+00
    outer loop
      vertex   7.612090e-01 -7.410859e+01 1.700000e+02
      vertex   7.088011e+01 -2.241086e+02 1.700000e+02
      vertex   -6.911989e+01 -2.241086e+02 1.700000e+02
    endloop
  endfacet
  facet normal -0.000000e+00 0.000000e+00 -1.000000e+00
    outer loop
      vertex   7.612090e-01 -7.410859e+01 1.700000e+02
      vertex   -6.911989e+01 -2.241086e+02 1.700000e+02
      vertex   -1.500000e+01 -7.410859e+01 1.700000e+02
    endloop
  endfacet
  facet normal -0.000000e+00 0.000000e+00 -1.000000e+00
    outer loop
      vertex   -1.500000e+01 -7.410859e+01 1.700000e+02
      vertex   -6.911989e+01 -2.241086e+02 1.700000e+02
      vertex   -6.911989e+01 -7.410859e+01 1.700000e+02
    endloop
  endfacet
  facet normal 0.000000e+00 0.000000e+00 -1.000000e+00
    outer loop
      vertex   -1.500000e+01 -2.410859e+01 1.700000e+02
      vertex   7.612090e-01 -2.410859e+01 1.700000e+02
      vertex   -1.500000e+01 -7.410859e+01 1.700000e+02
    endloop
  endfacet
  facet normal 0.000000e+00 0.000000e+00 -1.000000e+00
    outer loop
      vertex   -1.500000e+01 -7.410859e+01 1.700000e+02
      vertex   7.612090e-01 -2.410859e+01 1.700000e+02
      vertex   7.612090e-01 -7.410859e+01 1.700000e+02
    endloop
  endfacet
endsolid
